# 3ds Max Wavefront OBJ Exporter v0.97b - (c)2007 guruware
# File Created: 09.01.2016 16:58:27

#
# object batu_akik2
#

v  0.6514 0.9917 -0.9695
v  0.7983 0.9025 -0.9429
v  0.7547 0.8714 -1.2505
v  0.6709 0.9557 -1.3151
v  0.8032 0.7580 -1.1255
v  0.7742 0.7106 -1.3381
v  0.6315 0.7247 -1.4901
v  -0.7488 0.8794 1.2569
v  -0.8318 0.7561 1.2505
v  -0.7938 0.7201 1.3048
v  -0.6762 0.7510 1.2998
v  -0.6644 0.5149 1.2981
v  -0.7703 0.5002 1.2979
v  -0.8442 0.5106 1.2269
v  -0.7996 0.6560 -1.4855
v  -0.8875 0.6722 -1.3927
v  -0.8751 0.7905 -1.3638
v  -0.7925 0.8523 -1.3665
v  -0.7977 0.9078 -1.0653
v  -0.8742 0.8355 -1.2519
v  -0.8963 0.7285 -1.2615
v  -0.9084 -0.6976 -1.1912
v  -0.8242 -0.7271 -1.3759
v  -0.7940 -0.9008 -1.3087
v  -0.8615 -0.9381 -1.1549
v  -0.5835 -0.7217 -1.4861
v  -0.5777 -0.9329 -1.3720
v  -0.6785 -0.9871 -1.2277
v  0.4485 -0.1531 0.9562
v  0.1185 -0.0765 1.1329
v  0.1075 -0.4024 1.0694
v  0.2658 -0.5436 0.9425
v  0.0044 -0.7130 1.0919
v  -0.0723 -0.4871 1.1935
v  -0.1874 -0.0841 1.2272
v  0.2999 -0.6245 -1.5100
v  0.6121 -0.5882 -1.4968
v  0.5643 -0.7832 -1.4858
v  0.3086 -0.8675 -1.4935
v  0.7824 -0.6074 -1.3210
v  0.6672 -0.8436 -1.3522
v  0.3521 -0.9738 -1.3294
v  -0.3147 -0.8521 1.0690
v  -0.3187 -0.7507 1.1602
v  -0.5087 -0.7237 1.1952
v  -0.5754 -0.7871 1.1424
v  -0.6899 -0.6269 1.1537
v  -0.5654 -0.5484 1.2114
v  -0.3921 -0.6167 1.2016
v  -0.3793 -0.9334 0.8297
v  0.0521 -0.9069 0.5361
v  0.0775 -0.8318 0.9174
v  -0.5110 -0.9213 0.4456
v  -0.1980 -0.9196 0.3045
v  -0.6787 -0.9439 -0.2175
v  -0.1398 -0.9693 -0.2638
v  0.2828 -0.9262 -0.1820
v  0.4702 -0.6029 0.5865
v  0.6796 -0.1978 0.5525
v  0.5821 -0.7732 -0.1539
v  0.7550 -0.6118 -0.1479
v  0.4072 -0.7648 0.3933
v  0.0033 1.0242 0.7810
v  0.3527 1.0293 0.4335
v  0.2070 0.9763 0.2534
v  -0.1243 1.0009 0.3894
v  0.6325 1.0003 -0.2481
v  0.3029 1.0000 -0.3546
v  -0.1867 0.9928 -0.3527
v  -0.4926 0.9992 0.4658
v  -0.6982 0.9508 -0.3708
v  0.5123 0.9940 -1.2139
v  -0.2343 0.9951 -1.2241
v  -0.6649 0.9711 -1.2348
v  -0.8038 0.9123 -0.3545
v  -0.1934 0.9548 -1.4178
v  -0.6325 0.9525 -1.4259
v  -0.1626 0.7520 -1.5093
v  -0.5806 0.7213 -1.5065
v  -0.8052 0.2794 -1.4863
v  -0.5705 0.3004 -1.5045
v  -0.1498 0.3361 -1.5106
v  -0.5744 -0.2903 -1.5168
v  -0.1542 -0.2459 -1.5138
v  0.3637 0.7652 -1.4997
v  0.3247 0.3425 -1.5103
v  0.3180 -0.2137 -1.5099
v  -0.1514 -0.6830 -1.5080
v  0.6399 0.3382 -1.4957
v  0.6624 -0.2577 -1.4879
v  0.7642 0.4137 -1.3713
v  0.7737 -0.3475 -1.3524
v  0.8568 0.4104 -1.0881
v  0.8708 -0.3425 -1.0381
v  0.8686 -0.6291 -1.0097
v  0.8640 -0.2524 -0.0924
v  0.7437 -0.8327 -1.0202
v  0.4852 -0.9863 -1.0860
v  -0.0577 -1.0001 -1.1557
v  -0.1085 -0.9900 -1.3379
v  -0.6738 -1.0007 -1.0466
v  -0.1458 -0.9237 -1.4356
v  -0.8288 -0.9044 -0.2406
v  -0.8744 -0.9417 -0.8539
v  -0.9000 -0.7958 -0.2591
v  -0.9141 -0.7506 -0.9144
v  -0.9158 -0.4762 -0.2603
v  -0.9180 -0.2652 -0.9501
v  -0.9117 -0.2598 -1.2706
v  -0.9129 0.5056 -1.2864
v  -0.9055 0.4782 -1.4022
v  -0.8288 -0.4283 -1.4306
v  -0.9174 0.6260 -0.3384
v  -0.8977 0.7984 -0.3492
v  -0.9071 0.4214 0.5826
v  -0.8970 0.7644 0.5923
v  -0.8409 0.9116 0.7942
v  -0.8784 0.8766 -0.3531
v  -0.7102 0.9895 0.5422
v  -0.7897 0.9102 1.1623
v  -0.6209 0.9973 1.0346
v  -0.3561 0.9980 0.9515
v  -0.5585 0.9468 1.2688
v  -0.2345 0.9634 1.1944
v  0.1539 0.9535 1.0013
v  -0.1193 0.7393 1.2697
v  0.2965 0.7434 1.0558
v  0.6700 0.7392 0.5872
v  0.5082 0.9202 0.6983
v  0.8598 0.7500 -0.1679
v  0.7957 0.9467 -0.1820
v  0.6865 0.3230 0.5440
v  0.8597 0.3655 -0.1232
v  0.3849 0.3560 1.0204
v  0.0099 0.3876 1.2097
v  -0.4514 0.7415 1.2895
v  -0.3409 0.4153 1.2891
v  -0.4645 -0.1639 1.2436
v  -0.6419 -0.1989 1.2278
v  -0.7450 -0.2275 1.1596
v  -0.8840 0.4016 1.0483
v  -0.8260 -0.2556 1.0461
v  -0.7725 -0.6510 1.0452
v  -0.6775 -0.8178 1.0243
v  -0.8821 -0.3130 0.7376
v  -0.8456 -0.7112 0.7088
v  -0.7681 -0.8538 0.6930
v  -0.8731 0.8019 1.1567
v  0.4755 0.9597 -1.4038
# 149 vertices

vn 0.3069 0.9497 -0.0628
vn 0.8588 0.5074 -0.0706
vn 0.8404 0.4614 -0.2842
vn 0.4847 0.7608 -0.4316
vn 0.9767 0.1749 -0.1244
vn 0.8631 0.1968 -0.4651
vn 0.3935 0.2675 -0.8795
vn -0.3814 0.5610 0.7347
vn -0.8145 0.2002 0.5445
vn -0.4376 0.1178 0.8914
vn 0.0295 0.1813 0.9830
vn 0.0148 -0.0415 0.9990
vn -0.3815 -0.1137 0.9173
vn -0.8747 -0.0818 0.4778
vn -0.4236 0.1741 -0.8890
vn -0.8842 0.1530 -0.4414
vn -0.7629 0.4773 -0.4361
vn -0.5750 0.6830 -0.4504
vn -0.5402 0.8398 -0.0549
vn -0.6223 0.7431 -0.2461
vn -0.9888 0.1392 -0.0545
vn -0.9671 -0.1316 -0.2175
vn -0.6943 -0.2519 -0.6741
vn -0.5712 -0.5712 -0.5894
vn -0.7331 -0.6474 -0.2085
vn -0.2112 -0.2643 -0.9410
vn -0.1815 -0.7123 -0.6779
vn -0.1987 -0.9433 -0.2660
vn 0.6967 -0.1631 0.6986
vn 0.3775 -0.1229 0.9178
vn 0.4946 -0.1337 0.8588
vn 0.6488 -0.3986 0.6482
vn 0.4290 -0.4799 0.7653
vn 0.3484 -0.1292 0.9284
vn 0.2036 -0.0796 0.9758
vn 0.0053 -0.0514 -0.9987
vn 0.4095 -0.0946 -0.9074
vn 0.3619 -0.4022 -0.8410
vn 0.0631 -0.4995 -0.8640
vn 0.8663 -0.1837 -0.4645
vn 0.6207 -0.6694 -0.4083
vn 0.1853 -0.9237 -0.3352
vn 0.1149 -0.8395 0.5311
vn 0.1806 -0.4640 0.8672
vn -0.0789 -0.3798 0.9217
vn -0.2915 -0.6773 0.6755
vn -0.5772 -0.2641 0.7727
vn -0.1727 -0.1187 0.9778
vn 0.0978 -0.1540 0.9832
vn -0.0171 -0.9848 0.1727
vn 0.2251 -0.9684 0.1076
vn 0.4586 -0.7742 0.4363
vn -0.0883 -0.9954 0.0366
vn 0.0187 -0.9988 0.0458
vn -0.1528 -0.9859 0.0677
vn 0.0215 -0.9970 0.0744
vn 0.2687 -0.9555 0.1219
vn 0.7665 -0.5112 0.3888
vn 0.9002 -0.2018 0.3859
vn 0.5754 -0.7986 0.1767
vn 0.8235 -0.5261 0.2123
vn 0.6031 -0.7652 0.2254
vn 0.0351 0.9942 0.1016
vn 0.1212 0.9922 0.0296
vn -0.0664 0.9956 -0.0662
vn 0.0128 0.9995 -0.0284
vn 0.1605 0.9866 0.0287
vn -0.0101 0.9999 0.0118
vn -0.0330 0.9995 -0.0012
vn -0.0351 0.9993 -0.0125
vn -0.2158 0.9764 -0.0121
vn 0.2028 0.9673 -0.1523
vn -0.0285 0.9944 -0.1016
vn -0.3122 0.9449 -0.0986
vn -0.3936 0.9190 -0.0207
vn -0.0032 0.7842 -0.6205
vn -0.2509 0.7662 -0.5916
vn 0.0046 0.2080 -0.9781
vn -0.0761 0.1649 -0.9834
vn -0.4418 -0.0632 -0.8949
vn -0.0592 -0.0099 -0.9982
vn -0.0008 0.0070 -1.0000
vn -0.1648 -0.0120 -0.9863
vn 0.0079 -0.0038 -1.0000
vn 0.0630 0.2476 -0.9668
vn 0.0229 0.0112 -0.9997
vn 0.0302 -0.0010 -0.9995
vn -0.0007 -0.1594 -0.9872
vn 0.3982 0.0145 -0.9172
vn 0.4619 -0.0146 -0.8868
vn 0.8486 0.0154 -0.5287
vn 0.8740 -0.0243 -0.4853
vn 0.9871 0.0493 -0.1523
vn 0.9889 -0.0084 -0.1481
vn 0.9538 -0.2934 -0.0650
vn 0.9715 -0.1467 0.1862
vn 0.6998 -0.7143 0.0098
vn 0.3440 -0.9354 -0.0820
vn 0.0152 -0.9997 -0.0166
vn -0.0013 -0.9449 -0.3273
vn -0.1438 -0.9896 -0.0089
vn -0.0298 -0.6010 -0.7987
vn -0.5887 -0.8040 0.0837
vn -0.7141 -0.6998 0.0219
vn -0.9535 -0.2947 0.0635
vn -0.9926 -0.1194 -0.0223
vn -0.9993 -0.0257 0.0272
vn -1.0000 -0.0010 -0.0064
vn -0.9695 -0.0227 -0.2441
vn -0.9982 0.0420 -0.0424
vn -0.8909 0.0201 -0.4537
vn -0.6641 -0.0720 -0.7442
vn -0.9981 0.0603 0.0093
vn -0.9845 0.1754 0.0046
vn -0.9997 0.0001 0.0255
vn -0.9835 0.1797 0.0198
vn -0.7381 0.6734 0.0409
vn -0.7817 0.6236 -0.0090
vn -0.2884 0.9575 -0.0049
vn -0.5761 0.7661 0.2850
vn -0.1764 0.9769 0.1207
vn 0.0066 0.9966 0.0820
vn -0.0527 0.6615 0.7481
vn 0.1601 0.7773 0.6085
vn 0.3609 0.7803 0.5108
vn 0.2531 0.1721 0.9520
vn 0.6165 0.2954 0.7298
vn 0.8718 0.2583 0.4162
vn 0.6154 0.6172 0.4901
vn 0.9761 0.1821 0.1182
vn 0.7160 0.6896 0.1087
vn 0.9170 0.0145 0.3987
vn 0.9911 0.0131 0.1328
vn 0.6776 0.0420 0.7342
vn 0.3359 -0.0305 0.9414
vn 0.0870 0.1122 0.9899
vn 0.1259 -0.0149 0.9919
vn 0.0078 -0.0847 0.9964
vn -0.3043 -0.1092 0.9463
vn -0.6858 -0.1072 0.7198
vn -0.9820 -0.0549 0.1806
vn -0.9093 -0.1023 0.4034
vn -0.8426 -0.3045 0.4442
vn -0.5221 -0.7468 0.4120
vn -0.9908 -0.0744 0.1128
vn -0.9404 -0.2984 0.1629
vn -0.5999 -0.7857 0.1511
vn -0.9147 0.2913 0.2802
vn 0.2090 0.7163 -0.6657
# 149 vertex normals

vt 0.5888 0.3713 0.0000
vt 0.5649 0.3817 0.0000
vt 0.5987 0.4110 0.0000
vt 0.6199 0.4114 0.0000
vt 0.5707 0.4088 0.0000
vt 0.5920 0.4317 0.0000
vt 0.6211 0.4459 0.0000
vt 0.2649 0.1268 0.0000
vt 0.2469 0.1194 0.0000
vt 0.2362 0.1296 0.0000
vt 0.2396 0.1447 0.0000
vt 0.1994 0.1602 0.0000
vt 0.2012 0.1401 0.0000
vt 0.2110 0.1178 0.0000
vt 0.8007 0.6041 0.0000
vt 0.8135 0.6292 0.0000
vt 0.8428 0.5749 0.0000
vt 0.8262 0.5372 0.0000
vt 0.7972 0.3974 0.0000
vt 0.8377 0.4962 0.0000
vt 0.8175 0.6747 0.0000
vt 0.8370 0.6832 0.0000
vt 0.5378 0.7318 0.0000
vt 0.5517 0.7100 0.0000
vt 0.5195 0.7127 0.0000
vt 0.4983 0.7274 0.0000
vt 0.5575 0.6816 0.0000
vt 0.5151 0.6923 0.0000
vt 0.4936 0.7102 0.0000
vt 0.1819 0.3991 0.0000
vt 0.1408 0.3616 0.0000
vt 0.1124 0.4363 0.0000
vt 0.1399 0.4719 0.0000
vt 0.0942 0.5107 0.0000
vt 0.0749 0.4519 0.0000
vt 0.1002 0.3263 0.0000
vt 0.5293 0.5889 0.0000
vt 0.5071 0.5577 0.0000
vt 0.4893 0.5753 0.0000
vt 0.4942 0.6033 0.0000
vt 0.4747 0.5425 0.0000
vt 0.4643 0.5688 0.0000
vt 0.4637 0.6067 0.0000
vt 0.0760 0.5872 0.0000
vt 0.0536 0.5555 0.0000
vt 0.0437 0.6080 0.0000
vt 0.0625 0.6421 0.0000
vt 0.0572 0.6933 0.0000
vt 0.0254 0.6682 0.0000
vt 0.0258 0.5149 0.0000
vt 0.1208 0.6396 0.0000
vt 0.1770 0.5936 0.0000
vt 0.1234 0.5405 0.0000
vt 0.1930 0.7061 0.0000
vt 0.2118 0.6567 0.0000
vt 0.3351 0.7515 0.0000
vt 0.3062 0.6709 0.0000
vt 0.2899 0.6044 0.0000
vt 0.1980 0.4967 0.0000
vt 0.2443 0.4283 0.0000
vt 0.2971 0.5508 0.0000
vt 0.3128 0.5154 0.0000
vt 0.2162 0.5386 0.0000
vt 0.3703 0.2044 0.0000
vt 0.4205 0.2475 0.0000
vt 0.4652 0.2305 0.0000
vt 0.4560 0.1868 0.0000
vt 0.5077 0.2987 0.0000
vt 0.5621 0.2744 0.0000
vt 0.6284 0.2194 0.0000
vt 0.4478 0.1352 0.0000
vt 0.6739 0.1551 0.0000
vt 0.6336 0.3925 0.0000
vt 0.7335 0.4118 0.0000
vt 0.8031 0.4452 0.0000
vt 0.6793 0.1299 0.0000
vt 0.7379 0.4514 0.0000
vt 0.8021 0.4950 0.0000
vt 0.7312 0.4930 0.0000
vt 0.7845 0.5493 0.0000
vt 0.7374 0.6551 0.0000
vt 0.7284 0.6152 0.0000
vt 0.6990 0.5554 0.0000
vt 0.6300 0.6557 0.0000
vt 0.6128 0.6054 0.0000
vt 0.6642 0.4567 0.0000
vt 0.6364 0.5075 0.0000
vt 0.5821 0.5564 0.0000
vt 0.5480 0.6367 0.0000
vt 0.5924 0.4830 0.0000
vt 0.5341 0.5285 0.0000
vt 0.5735 0.4621 0.0000
vt 0.5018 0.5225 0.0000
vt 0.5313 0.4379 0.0000
vt 0.4549 0.5040 0.0000
vt 0.4262 0.5314 0.0000
vt 0.3337 0.4590 0.0000
vt 0.4166 0.5606 0.0000
vt 0.4238 0.5973 0.0000
vt 0.4535 0.6541 0.0000
vt 0.4852 0.6542 0.0000
vt 0.4627 0.7227 0.0000
vt 0.5069 0.6510 0.0000
vt 0.3556 0.7745 0.0000
vt 0.4559 0.7516 0.0000
vt 0.3741 0.7941 0.0000
vt 0.4914 0.7590 0.0000
vt 0.4178 0.8385 0.0000
vt 0.5749 0.7533 0.0000
vt 0.6226 0.7153 0.0000
vt 0.7749 0.6966 0.0000
vt 0.7750 0.6678 0.0000
vt 0.6070 0.6981 0.0000
vt 0.6303 0.9296 0.0000
vt 0.6732 0.9369 0.0000
vt 0.3196 0.0020 0.0000
vt 0.3825 0.0575 0.0000
vt 0.6741 0.0890 0.0000
vt 0.6558 0.0498 0.0000
vt 0.3484 0.0825 0.0000
vt 0.6841 0.1096 0.0000
vt 0.6894 0.9435 0.0000
vt 0.4249 0.1040 0.0000
vt 0.2802 0.1112 0.0000
vt 0.3190 0.1297 0.0000
vt 0.3429 0.1606 0.0000
vt 0.2760 0.1503 0.0000
vt 0.2915 0.1867 0.0000
vt 0.3205 0.2281 0.0000
vt 0.2504 0.2196 0.0000
vt 0.2863 0.2626 0.0000
vt 0.3505 0.3023 0.0000
vt 0.3603 0.2678 0.0000
vt 0.4499 0.3381 0.0000
vt 0.4781 0.3153 0.0000
vt 0.2986 0.3558 0.0000
vt 0.3979 0.3800 0.0000
vt 0.2337 0.3170 0.0000
vt 0.1983 0.2752 0.0000
vt 0.2379 0.1785 0.0000
vt 0.1813 0.2265 0.0000
vt 0.0593 0.2891 0.0000
vt 0.0500 0.2408 0.0000
vt 0.0020 0.4318 0.0000
vt 0.0570 0.1927 0.0000
vt 0.0046 0.7716 0.0000
vt 0.0331 0.7875 0.0000
vt 0.2148 0.0873 0.0000
vt 0.0638 0.1438 0.0000
vt 0.0848 0.7283 0.0000
vt 0.0697 0.8127 0.0000
vt 0.0898 0.6870 0.0000
vt 0.1809 0.8808 0.0000
vt 0.1629 0.7851 0.0000
vt 0.1583 0.7508 0.0000
vt 0.0688 0.0558 0.0000
vt 0.3607 0.9980 0.0000
vt 0.2646 0.1045 0.0000
vt 0.6531 0.4190 0.0000
# 159 texture coords

g batu_akik2
s 7
f 1/1/1 2/2/2 3/3/3 4/4/4 
f 5/5/5 6/6/6 3/3/3 2/2/2 
s 15
f 7/7/7 4/4/4 3/3/3 6/6/6 
s 21
f 8/8/8 9/9/9 10/10/10 11/11/11 
s 1
f 12/12/12 11/11/11 10/10/10 13/13/13 
f 14/14/14 13/13/13 10/10/10 9/9/9 
s 7
f 15/15/15 16/16/16 17/17/17 18/18/18 
f 19/19/19 18/18/18 17/17/17 20/20/20 
s 3
f 21/21/21 20/22/20 17/17/17 16/16/16 
s 19
f 22/23/22 23/24/23 24/25/24 25/26/25 
s 3
f 26/27/26 27/28/27 24/25/24 23/24/23 
s 15
f 28/29/28 25/26/25 24/25/24 27/28/27 
s 1
f 29/30/29 30/31/30 31/32/31 32/33/32 
f 33/34/33 32/33/32 31/32/31 34/35/34 
f 35/36/35 34/35/34 31/32/31 30/31/30 
f 36/37/36 37/38/37 38/39/38 39/40/39 
f 40/41/40 41/42/41 38/39/38 37/38/37 
f 42/43/42 39/40/39 38/39/38 41/42/41 
f 43/44/43 44/45/44 45/46/45 46/47/46 
f 47/48/47 46/47/46 45/46/45 48/49/48 
f 49/50/49 48/49/48 45/46/45 44/45/44 
f 43/44/43 50/51/50 51/52/51 52/53/52 
f 53/54/53 54/55/54 51/52/51 50/51/50 
f 55/56/55 56/57/56 54/55/54 53/54/53 
f 57/58/57 51/52/51 54/55/54 56/57/56 
f 29/30/29 32/33/32 58/59/58 59/60/59 
f 60/61/60 61/62/61 58/59/58 62/63/62 
s 3
f 63/64/63 64/65/64 65/66/65 66/67/66 
f 67/68/67 68/69/68 65/66/65 64/65/64 
s 1
f 69/70/69 66/67/66 65/66/65 68/69/68 
f 70/71/70 66/67/66 69/70/69 71/72/71 
f 72/73/72 73/74/73 69/70/69 68/69/68 
s 5
f 74/75/74 71/72/71 69/70/69 73/74/73 
f 75/76/75 71/72/71 74/75/74 19/19/19 
f 76/77/76 77/78/77 74/75/74 73/74/73 
f 18/18/18 19/19/19 74/75/74 77/78/77 
s 1
f 78/79/78 79/80/79 77/78/77 76/77/76 
s 7
f 15/15/15 18/18/18 77/78/77 79/80/79 
s 3
f 80/81/80 15/15/15 79/80/79 81/82/81 
s 1
f 82/83/82 81/82/81 79/80/79 78/79/78 
f 83/84/83 81/82/81 82/83/82 84/85/84 
s 9
f 85/86/85 86/87/86 82/83/82 78/79/78 
s 1
f 87/88/87 84/85/84 82/83/82 86/87/86 
f 88/89/88 84/85/84 87/88/87 36/37/36 
f 89/90/89 90/91/90 87/88/87 86/87/86 
f 37/38/37 36/37/36 87/88/87 90/91/90 
f 91/92/91 92/93/92 90/91/90 89/90/89 
f 40/41/40 37/38/37 90/91/90 92/93/92 
f 93/94/93 94/95/94 92/93/92 91/92/91 
f 95/96/95 40/41/40 92/93/92 94/95/94 
f 96/97/96 61/62/61 95/96/95 94/95/94 
f 60/61/60 97/98/97 95/96/95 61/62/61 
f 41/42/41 40/41/40 95/96/95 97/98/97 
f 57/58/57 98/99/98 97/98/97 60/61/60 
f 42/43/42 41/42/41 97/98/97 98/99/98 
f 56/57/56 99/100/99 98/99/98 57/58/57 
f 100/101/100 42/43/42 98/99/98 99/100/99 
s 13
f 101/102/101 28/29/28 100/101/100 99/100/99 
s 5
f 27/28/27 102/103/102 100/101/100 28/29/28 
s 1
f 39/40/39 42/43/42 100/101/100 102/103/102 
f 26/27/26 88/89/88 102/103/102 27/28/27 
f 36/37/36 39/40/39 102/103/102 88/89/88 
s 13
f 56/57/56 55/56/55 101/102/101 99/100/99 
f 103/104/103 104/105/104 101/102/101 55/56/55 
s 28
f 25/26/25 28/29/28 101/102/101 104/105/104 
s 29
f 105/106/105 106/107/106 104/105/104 103/104/103 
s 17
f 22/23/22 25/26/25 104/105/104 106/107/106 
f 107/108/107 108/109/108 106/107/106 105/106/105 
s 19
f 109/110/109 22/23/22 106/107/106 108/109/108 
s 3
f 110/111/110 111/112/111 109/110/109 108/109/108 
f 80/81/80 112/113/112 109/110/109 111/112/111 
s 19
f 23/24/23 22/23/22 109/110/109 112/113/112 
s 3
f 81/82/81 83/84/83 112/113/112 80/81/80 
f 26/27/26 23/24/23 112/113/112 83/84/83 
f 21/21/21 16/16/16 111/112/111 110/111/110 
f 15/15/15 80/81/80 111/112/111 16/16/16 
s 1
f 107/108/107 113/114/113 110/111/110 108/109/108 
f 114/115/114 21/21/21 110/111/110 113/114/113 
f 115/116/115 116/117/116 114/118/114 113/119/113 
f 117/120/117 118/121/118 114/118/114 116/117/116 
f 20/22/20 21/21/21 114/115/114 118/122/118 
f 119/123/119 75/76/75 118/121/118 117/120/117 
s 5
f 19/19/19 20/20/20 118/121/118 75/76/75 
s 19
f 120/124/120 121/125/121 119/123/119 117/120/117 
s 3
f 122/126/122 70/71/70 119/123/119 121/125/121 
s 1
f 71/72/71 75/76/75 119/123/119 70/71/70 
s 18
f 123/127/123 124/128/124 122/126/122 121/125/121 
s 2
f 125/129/125 63/64/63 122/126/122 124/128/124 
s 3
f 66/67/66 70/71/70 122/126/122 63/64/63 
s 15
f 126/130/126 127/131/127 125/129/125 124/128/124 
s 7
f 128/132/128 129/133/129 125/129/125 127/131/127 
s 3
f 64/65/64 63/64/63 125/129/125 129/133/129 
s 7
f 130/134/130 131/135/131 129/133/129 128/132/128 
s 3
f 67/68/67 64/65/64 129/133/129 131/135/131 
s 7
f 5/5/5 2/2/2 131/135/131 130/134/130 
f 1/1/1 67/68/67 131/135/131 2/2/2 
s 5
f 132/136/132 133/137/133 130/134/130 128/132/128 
f 93/94/93 5/5/5 130/134/130 133/137/133 
s 1
f 59/60/59 96/97/96 133/137/133 132/136/132 
f 94/95/94 93/94/93 133/137/133 96/97/96 
s 5
f 127/131/127 134/138/134 132/136/132 128/132/128 
s 1
f 29/30/29 59/60/59 132/136/132 134/138/134 
f 126/130/126 135/139/135 134/138/134 127/131/127 
f 30/31/30 29/30/29 134/138/134 135/139/135 
s 13
f 136/140/136 137/141/137 135/139/135 126/130/126 
s 1
f 35/36/35 30/31/30 135/139/135 137/141/137 
s 13
f 11/11/11 12/12/12 137/141/137 136/140/136 
s 1
f 138/142/138 35/36/35 137/141/137 12/12/12 
f 13/13/13 139/143/139 138/142/138 12/12/12 
f 48/144/48 49/50/49 138/142/138 139/143/139 
f 34/35/34 35/36/35 138/142/138 49/50/49 
f 14/14/14 140/145/140 139/143/139 13/13/13 
f 47/48/47 48/49/48 139/146/139 140/147/140 
f 141/148/141 142/149/142 140/145/140 14/14/14 
f 143/150/143 47/48/47 140/147/140 142/151/142 
f 46/47/46 47/48/47 143/150/143 144/152/144 
f 145/153/145 146/154/146 143/150/143 142/151/142 
f 147/155/147 144/152/144 143/150/143 146/154/146 
f 50/51/50 144/152/144 147/155/147 53/54/53 
s 5
f 105/106/105 103/104/103 147/155/147 146/154/146 
f 55/56/55 53/54/53 147/155/147 103/104/103 
s 1
f 107/108/107 105/106/105 146/154/146 145/153/145 
f 141/148/141 115/116/115 145/156/145 142/149/142 
f 113/114/113 107/108/107 145/153/145 115/157/115 
f 43/44/43 46/47/46 144/152/144 50/51/50 
f 9/9/9 148/158/148 141/148/141 14/14/14 
f 116/117/116 115/116/115 141/148/141 148/158/148 
s 21
f 8/8/8 120/124/120 148/158/148 9/9/9 
s 17
f 117/120/117 116/117/116 148/158/148 120/124/120 
s 29
f 8/8/8 11/11/11 136/140/136 123/127/123 
f 124/128/124 123/127/123 136/140/136 126/130/126 
s 19
f 120/124/120 8/8/8 123/127/123 121/125/121 
s 1
f 58/59/58 61/62/61 96/97/96 59/60/59 
s 5
f 6/6/6 5/5/5 93/94/93 91/92/91 
f 7/7/7 6/6/6 91/92/91 89/90/89 
s 13
f 85/86/85 7/7/7 89/90/89 86/87/86 
s 1
f 83/84/83 84/85/84 88/89/88 26/27/26 
s 13
f 76/77/76 149/159/149 85/86/85 78/79/78 
s 15
f 4/4/4 7/7/7 85/86/85 149/159/149 
s 5
f 73/74/73 72/73/72 149/159/149 76/77/76 
s 11
f 1/1/1 4/4/4 149/159/149 72/73/72 
s 3
f 67/68/67 1/1/1 72/73/72 68/69/68 
s 1
f 51/52/51 57/58/57 60/61/60 62/63/62 
f 33/34/33 52/53/52 58/59/58 32/33/32 
f 44/45/44 43/44/43 52/53/52 33/34/33 
f 52/53/52 51/52/51 62/63/62 58/59/58 
f 33/34/33 34/35/34 49/50/49 44/45/44 
# 147 polygons

